<?xml version="1.0" standalone="no"?><!DOCTYPE svg PUBLIC "-//W3C//DTD SVG 1.1//EN" "http://www.w3.org/Graphics/SVG/1.1/DTD/svg11.dtd"><svg t="1720160092402" class="icon" viewBox="0 0 1024 1024" version="1.1" xmlns="http://www.w3.org/2000/svg" p-id="17370" xmlns:xlink="http://www.w3.org/1999/xlink" width="64" height="64"><path d="M831.856292 454.366885H174.348921c-3.299033 0-5.498389 0.299912-6.798008 0.599824-0.199941 1.299619-0.299912 3.498975 0 6.698038 6.298155 79.676657 27.591916 143.457971 63.18149 189.544469 31.390803 40.588109 74.278239 68.979791 131.061603 86.874549 6.098213 0 13.596017 0 22.293468 0.09997 32.190569 0.099971 80.776335 0.299912 130.56175-0.09997 50.085327-0.399883 100.270624-0.199941 133.4609-0.099971 8.097628 0 15.195548 0.099971 20.993849 0.099971 115.066289-40.987992 179.947281-134.460607 192.943474-278.01855 0.099971-0.999707 0.299912-3.299033 0.399883-5.498389-1.39959-0.199941-3.299033-0.299912-5.59836-0.299912l-24.992678 0.099971zM517.148492 814.66133c-22.693352 0.199941-45.086791 0.299912-65.880699 0.299912-25.192619 0-47.885971-0.099971-65.680758-0.199942h-11.19672v42.687494h287.91565v-42.687494c-3.898858 0-8.197598 0-12.796251-0.09997-32.890364-0.199941-82.675779-0.399883-132.361222 0zM514.849165 377.589378h273.419897c-12.69628-25.692473-37.8889-43.187347-66.680465-43.187347-21.193791 0-38.388753-17.194962-38.388753-38.388754 0-28.891536-13.9959-54.284096-34.989749-68.779849-3.498975 3.498975-7.697745 6.398126-12.59631 8.397539-19.594259 8.097628-42.08767-1.199649-50.185297-20.793908-12.196427-29.391389-39.28849-48.385824-69.079762-48.385824-23.393147 0-45.186762 11.696573-59.282632 30.990921-0.299912 0.499854-0.699795 0.899736-0.999707 1.39959-3.498975 4.998536-6.498096 10.496925-8.897394 16.295226-6.098213 14.895636-20.394025 23.893-35.589573 23.893-4.798594 0-9.79713-0.899736-14.495753-2.899151-4.998536-1.999414-9.397247-4.998536-12.896222-8.697452-20.793908 14.595724-34.589866 39.788343-34.589866 68.479938 0 21.193791-17.194962 38.388753-38.388753 38.388753-28.791565 0-53.884214 17.494875-66.680465 43.187347h4.498682c63.881285 0.099971 156.754076 0.099971 265.822122 0.099971z" fill="#dd6572" p-id="17371"></path><path d="M895.737577 0H127.962511C57.283218 0 0 57.383189 0 127.962511v767.775066c0 70.679293 57.283218 127.962511 127.962511 127.962511h767.775066c70.679293 0 127.962511-57.283218 127.962511-127.962511v-767.775066c0-70.579322-57.283218-127.962511-127.962511-127.962511z m41.787757 466.963194c-13.9959 155.85434-83.275603 267.321683-201.341013 325.404667v103.369716c0 21.193791-17.194962 38.388753-38.388753 38.388753H333.102411c-21.193791 0-38.388753-17.194962-38.388753-38.388753V794.967099C243.328712 772.073807 201.141072 739.683296 168.950503 698.09548c-22.393439-28.891536-40.288197-62.781607-53.38436-100.670507-13.196134-38.288783-21.793615-81.975984-25.592502-129.761984-2.599239-33.490188 9.197305-53.984184 19.69423-65.380845 9.197305-9.997071 25.592502-21.693644 52.684565-24.192912C175.948453 320.606072 219.935566 275.31934 275.519281 261.823294c13.695988-64.58108 65.480816-114.466465 129.462072-122.864005 28.191741-30.89095 67.880113-49.285561 110.467637-49.285561 42.587523 0 82.175925 18.394611 110.467636 49.285561 63.981255 8.39754 115.766084 58.282925 129.462072 122.864005 55.583716 13.596017 99.570829 58.882749 113.166845 116.465879 21.493703 2.199356 38.688665 10.097042 51.085034 23.693059 21.593674 23.593088 18.894465 53.684272 17.894757 64.980962z" fill="#dd6572" p-id="17372"></path></svg>